<svg id="fp-icon-sprite" xmlns="http://www.w3.org/2000/svg">
<symbol id="lucide-user" data-group="people" viewBox="0 0 24 24" class="lucide lucide-user" fill="none" stroke="currentColor" stroke-width="2" stroke-linecap="round" stroke-linejoin="round"><path d="M19 21v-2a4 4 0 0 0-4-4H9a4 4 0 0 0-4 4v2" />
  <circle cx="12" cy="7" r="4" /></symbol>
<symbol id="lucide-users" data-group="people" viewBox="0 0 24 24" class="lucide lucide-users" fill="none" stroke="currentColor" stroke-width="2" stroke-linecap="round" stroke-linejoin="round"><path d="M16 21v-2a4 4 0 0 0-4-4H6a4 4 0 0 0-4 4v2" />
  <circle cx="9" cy="7" r="4" />
  <path d="M22 21v-2a4 4 0 0 0-3-3.87" />
  <path d="M16 3.13a4 4 0 0 1 0 7.75" /></symbol>
<symbol id="lucide-user-round" data-group="people" viewBox="0 0 24 24" class="lucide lucide-user-round" fill="none" stroke="currentColor" stroke-width="2" stroke-linecap="round" stroke-linejoin="round"><circle cx="12" cy="8" r="5" />
  <path d="M20 21a8 8 0 0 0-16 0" /></symbol>
<symbol id="lucide-baby" data-group="people" viewBox="0 0 24 24" class="lucide lucide-baby" fill="none" stroke="currentColor" stroke-width="2" stroke-linecap="round" stroke-linejoin="round"><path d="M9 12h.01" />
  <path d="M15 12h.01" />
  <path d="M10 16c.5.3 1.2.5 2 .5s1.5-.2 2-.5" />
  <path d="M19 6.3a9 9 0 0 1 1.8 3.9 2 2 0 0 1 0 3.6 9 9 0 0 1-17.6 0 2 2 0 0 1 0-3.6A9 9 0 0 1 12 3c2 0 3.5 1.1 3.5 2.5s-.9 2.5-2 2.5c-.8 0-1.5-.4-1.5-1" /></symbol>
<symbol id="lucide-glasses" data-group="people" viewBox="0 0 24 24" class="lucide lucide-glasses" fill="none" stroke="currentColor" stroke-width="2" stroke-linecap="round" stroke-linejoin="round"><circle cx="6" cy="15" r="4" />
  <circle cx="18" cy="15" r="4" />
  <path d="M14 15a2 2 0 0 0-2-2 2 2 0 0 0-2 2" />
  <path d="M2.5 13 5 7c.7-1.3 1.4-2 3-2" />
  <path d="M21.5 13 19 7c-.7-1.3-1.5-2-3-2" /></symbol>
<symbol id="lucide-shirt" data-group="people" viewBox="0 0 24 24" class="lucide lucide-shirt" fill="none" stroke="currentColor" stroke-width="2" stroke-linecap="round" stroke-linejoin="round"><path d="M20.38 3.46 16 2a4 4 0 0 1-8 0L3.62 3.46a2 2 0 0 0-1.34 2.23l.58 3.47a1 1 0 0 0 .99.84H6v10c0 1.1.9 2 2 2h8a2 2 0 0 0 2-2V10h2.15a1 1 0 0 0 .99-.84l.58-3.47a2 2 0 0 0-1.34-2.23z" /></symbol>
<symbol id="lucide-graduation-cap" data-group="people" viewBox="0 0 24 24" class="lucide lucide-graduation-cap" fill="none" stroke="currentColor" stroke-width="2" stroke-linecap="round" stroke-linejoin="round"><path d="M21.42 10.922a1 1 0 0 0-.019-1.838L12.83 5.18a2 2 0 0 0-1.66 0L2.6 9.08a1 1 0 0 0 0 1.832l8.57 3.908a2 2 0 0 0 1.66 0z" />
  <path d="M22 10v6" />
  <path d="M6 12.5V16a6 3 0 0 0 12 0v-3.5" /></symbol>
<symbol id="lucide-heart" data-group="people" viewBox="0 0 24 24" class="lucide lucide-heart" fill="none" stroke="currentColor" stroke-width="2" stroke-linecap="round" stroke-linejoin="round"><path d="M19 14c1.49-1.46 3-3.21 3-5.5A5.5 5.5 0 0 0 16.5 3c-1.76 0-3 .5-4.5 2-1.5-1.5-2.74-2-4.5-2A5.5 5.5 0 0 0 2 8.5c0 2.3 1.5 4.05 3 5.5l7 7Z" /></symbol>
<symbol id="lucide-smile" data-group="people" viewBox="0 0 24 24" class="lucide lucide-smile" fill="none" stroke="currentColor" stroke-width="2" stroke-linecap="round" stroke-linejoin="round"><circle cx="12" cy="12" r="10" />
  <path d="M8 14s1.5 2 4 2 4-2 4-2" />
  <line x1="9" x2="9.01" y1="9" y2="9" />
  <line x1="15" x2="15.01" y1="9" y2="9" /></symbol>
<symbol id="lucide-dog" data-group="pets" viewBox="0 0 24 24" class="lucide lucide-dog" fill="none" stroke="currentColor" stroke-width="2" stroke-linecap="round" stroke-linejoin="round"><path d="M11.25 16.25h1.5L12 17z" />
  <path d="M16 14v.5" />
  <path d="M4.42 11.247A13.152 13.152 0 0 0 4 14.556C4 18.728 7.582 21 12 21s8-2.272 8-6.444a11.702 11.702 0 0 0-.493-3.309" />
  <path d="M8 14v.5" />
  <path d="M8.5 8.5c-.384 1.05-1.083 2.028-2.344 2.5-1.931.722-3.576-.297-3.656-1-.113-.994 1.177-6.53 4-7 1.923-.321 3.651.845 3.651 2.235A7.497 7.497 0 0 1 14 5.277c0-1.39 1.844-2.598 3.767-2.277 2.823.47 4.113 6.006 4 7-.08.703-1.725 1.722-3.656 1-1.261-.472-1.855-1.45-2.239-2.5" /></symbol>
<symbol id="lucide-cat" data-group="pets" viewBox="0 0 24 24" class="lucide lucide-cat" fill="none" stroke="currentColor" stroke-width="2" stroke-linecap="round" stroke-linejoin="round"><path d="M12 5c.67 0 1.35.09 2 .26 1.78-2 5.03-2.84 6.42-2.26 1.4.58-.42 7-.42 7 .57 1.07 1 2.24 1 3.44C21 17.9 16.97 21 12 21s-9-3-9-7.56c0-1.25.5-2.4 1-3.44 0 0-1.89-6.42-.5-7 1.39-.58 4.72.23 6.5 2.23A9.04 9.04 0 0 1 12 5Z" />
  <path d="M8 14v.5" />
  <path d="M16 14v.5" />
  <path d="M11.25 16.25h1.5L12 17l-.75-.75Z" /></symbol>
<symbol id="lucide-bird" data-group="pets" viewBox="0 0 24 24" class="lucide lucide-bird" fill="none" stroke="currentColor" stroke-width="2" stroke-linecap="round" stroke-linejoin="round"><path d="M16 7h.01" />
  <path d="M3.4 18H12a8 8 0 0 0 8-8V7a4 4 0 0 0-7.28-2.3L2 20" />
  <path d="m20 7 2 .5-2 .5" />
  <path d="M10 18v3" />
  <path d="M14 17.75V21" />
  <path d="M7 18a6 6 0 0 0 3.84-10.61" /></symbol>
<symbol id="lucide-rabbit" data-group="pets" viewBox="0 0 24 24" class="lucide lucide-rabbit" fill="none" stroke="currentColor" stroke-width="2" stroke-linecap="round" stroke-linejoin="round"><path d="M13 16a3 3 0 0 1 2.24 5" />
  <path d="M18 12h.01" />
  <path d="M18 21h-8a4 4 0 0 1-4-4 7 7 0 0 1 7-7h.2L9.6 6.4a1 1 0 1 1 2.8-2.8L15.8 7h.2c3.3 0 6 2.7 6 6v1a2 2 0 0 1-2 2h-1a3 3 0 0 0-3 3" />
  <path d="M20 8.54V4a2 2 0 1 0-4 0v3" />
  <path d="M7.612 12.524a3 3 0 1 0-1.6 4.3" /></symbol>
<symbol id="lucide-fish" data-group="pets" viewBox="0 0 24 24" class="lucide lucide-fish" fill="none" stroke="currentColor" stroke-width="2" stroke-linecap="round" stroke-linejoin="round"><path d="M6.5 12c.94-3.46 4.94-6 8.5-6 3.56 0 6.06 2.54 7 6-.94 3.47-3.44 6-7 6s-7.56-2.53-8.5-6Z" />
  <path d="M18 12v.5" />
  <path d="M16 17.93a9.77 9.77 0 0 1 0-11.86" />
  <path d="M7 10.67C7 8 5.58 5.97 2.73 5.5c-1 1.5-1 5 .23 6.5-1.24 1.5-1.24 5-.23 6.5C5.58 18.03 7 16 7 13.33" />
  <path d="M10.46 7.26C10.2 5.88 9.17 4.24 8 3h5.8a2 2 0 0 1 1.98 1.67l.23 1.4" />
  <path d="m16.01 17.93-.23 1.4A2 2 0 0 1 13.8 21H9.5a5.96 5.96 0 0 0 1.49-3.98" /></symbol>
<symbol id="lucide-paw-print" data-group="pets" viewBox="0 0 24 24" class="lucide lucide-paw-print" fill="none" stroke="currentColor" stroke-width="2" stroke-linecap="round" stroke-linejoin="round"><circle cx="11" cy="4" r="2" />
  <circle cx="18" cy="8" r="2" />
  <circle cx="20" cy="16" r="2" />
  <path d="M9 10a5 5 0 0 1 5 5v3.5a3.5 3.5 0 0 1-6.84 1.045Q6.52 17.48 4.46 16.84A3.5 3.5 0 0 1 5.5 10Z" /></symbol>
<symbol id="lucide-turtle" data-group="pets" viewBox="0 0 24 24" class="lucide lucide-turtle" fill="none" stroke="currentColor" stroke-width="2" stroke-linecap="round" stroke-linejoin="round"><path d="m12 10 2 4v3a1 1 0 0 0 1 1h2a1 1 0 0 0 1-1v-3a8 8 0 1 0-16 0v3a1 1 0 0 0 1 1h2a1 1 0 0 0 1-1v-3l2-4h4Z" />
  <path d="M4.82 7.9 8 10" />
  <path d="M15.18 7.9 12 10" />
  <path d="M16.93 10H20a2 2 0 0 1 0 4H2" /></symbol>
<symbol id="lucide-squirrel" data-group="pets" viewBox="0 0 24 24" class="lucide lucide-squirrel" fill="none" stroke="currentColor" stroke-width="2" stroke-linecap="round" stroke-linejoin="round"><path d="M15.236 22a3 3 0 0 0-2.2-5" />
  <path d="M16 20a3 3 0 0 1 3-3h1a2 2 0 0 0 2-2v-2a4 4 0 0 0-4-4V4" />
  <path d="M18 13h.01" />
  <path d="M18 6a4 4 0 0 0-4 4 7 7 0 0 0-7 7c0-5 4-5 4-10.5a4.5 4.5 0 1 0-9 0 2.5 2.5 0 0 0 5 0C7 10 3 11 3 17c0 2.8 2.2 5 5 5h10" /></symbol>
<symbol id="lucide-bike" data-group="things" viewBox="0 0 24 24" class="lucide lucide-bike" fill="none" stroke="currentColor" stroke-width="2" stroke-linecap="round" stroke-linejoin="round"><circle cx="18.5" cy="17.5" r="3.5" />
  <circle cx="5.5" cy="17.5" r="3.5" />
  <circle cx="15" cy="5" r="1" />
  <path d="M12 17.5V14l-3-3 4-3 2 3h2" /></symbol>
<symbol id="lucide-backpack" data-group="things" viewBox="0 0 24 24" class="lucide lucide-backpack" fill="none" stroke="currentColor" stroke-width="2" stroke-linecap="round" stroke-linejoin="round"><path d="M4 10a4 4 0 0 1 4-4h8a4 4 0 0 1 4 4v10a2 2 0 0 1-2 2H6a2 2 0 0 1-2-2z" />
  <path d="M8 10h8" />
  <path d="M8 18h8" />
  <path d="M8 22v-6a2 2 0 0 1 2-2h4a2 2 0 0 1 2 2v6" />
  <path d="M9 6V4a2 2 0 0 1 2-2h2a2 2 0 0 1 2 2v2" /></symbol>
<symbol id="lucide-shopping-bag" data-group="things" viewBox="0 0 24 24" class="lucide lucide-shopping-bag" fill="none" stroke="currentColor" stroke-width="2" stroke-linecap="round" stroke-linejoin="round"><path d="M6 2 3 6v14a2 2 0 0 0 2 2h14a2 2 0 0 0 2-2V6l-3-4Z" />
  <path d="M3 6h18" />
  <path d="M16 10a4 4 0 0 1-8 0" /></symbol>
<symbol id="lucide-key" data-group="things" viewBox="0 0 24 24" class="lucide lucide-key" fill="none" stroke="currentColor" stroke-width="2" stroke-linecap="round" stroke-linejoin="round"><path d="m15.5 7.5 2.3 2.3a1 1 0 0 0 1.4 0l2.1-2.1a1 1 0 0 0 0-1.4L19 4" />
  <path d="m21 2-9.6 9.6" />
  <circle cx="7.5" cy="15.5" r="5.5" /></symbol>
<symbol id="lucide-key-round" data-group="things" viewBox="0 0 24 24" class="lucide lucide-key-round" fill="none" stroke="currentColor" stroke-width="2" stroke-linecap="round" stroke-linejoin="round"><path d="M2.586 17.414A2 2 0 0 0 2 18.828V21a1 1 0 0 0 1 1h3a1 1 0 0 0 1-1v-1a1 1 0 0 1 1-1h1a1 1 0 0 0 1-1v-1a1 1 0 0 1 1-1h.172a2 2 0 0 0 1.414-.586l.814-.814a6.5 6.5 0 1 0-4-4z" />
  <circle cx="16.5" cy="7.5" r=".5" fill="currentColor" /></symbol>
<symbol id="lucide-car" data-group="things" viewBox="0 0 24 24" class="lucide lucide-car" fill="none" stroke="currentColor" stroke-width="2" stroke-linecap="round" stroke-linejoin="round"><path d="M19 17h2c.6 0 1-.4 1-1v-3c0-.9-.7-1.7-1.5-1.9C18.7 10.6 16 10 16 10s-1.3-1.4-2.2-2.3c-.5-.4-1.1-.7-1.8-.7H5c-.6 0-1.1.4-1.4.9l-1.4 2.9A3.7 3.7 0 0 0 2 12v4c0 .6.4 1 1 1h2" />
  <circle cx="7" cy="17" r="2" />
  <path d="M9 17h6" />
  <circle cx="17" cy="17" r="2" /></symbol>
<symbol id="lucide-luggage" data-group="things" viewBox="0 0 24 24" class="lucide lucide-luggage" fill="none" stroke="currentColor" stroke-width="2" stroke-linecap="round" stroke-linejoin="round"><path d="M6 20a2 2 0 0 1-2-2V8a2 2 0 0 1 2-2h12a2 2 0 0 1 2 2v10a2 2 0 0 1-2 2" />
  <path d="M8 18V4a2 2 0 0 1 2-2h4a2 2 0 0 1 2 2v14" />
  <path d="M10 20h4" />
  <circle cx="16" cy="20" r="2" />
  <circle cx="8" cy="20" r="2" /></symbol>
<symbol id="lucide-wallet" data-group="things" viewBox="0 0 24 24" class="lucide lucide-wallet" fill="none" stroke="currentColor" stroke-width="2" stroke-linecap="round" stroke-linejoin="round"><path d="M19 7V4a1 1 0 0 0-1-1H5a2 2 0 0 0 0 4h15a1 1 0 0 1 1 1v4h-3a2 2 0 0 0 0 4h3a1 1 0 0 0 1-1v-2a1 1 0 0 0-1-1" />
  <path d="M3 5v14a2 2 0 0 0 2 2h15a1 1 0 0 0 1-1v-4" /></symbol>
<symbol id="lucide-watch" data-group="things" viewBox="0 0 24 24" class="lucide lucide-watch" fill="none" stroke="currentColor" stroke-width="2" stroke-linecap="round" stroke-linejoin="round"><circle cx="12" cy="12" r="6" />
  <polyline points="12 10 12 12 13 13" />
  <path d="m16.13 7.66-.81-4.05a2 2 0 0 0-2-1.61h-2.68a2 2 0 0 0-2 1.61l-.78 4.05" />
  <path d="m7.88 16.36.8 4a2 2 0 0 0 2 1.61h2.72a2 2 0 0 0 2-1.61l.81-4.05" /></symbol>
<symbol id="lucide-smartphone" data-group="things" viewBox="0 0 24 24" class="lucide lucide-smartphone" fill="none" stroke="currentColor" stroke-width="2" stroke-linecap="round" stroke-linejoin="round"><rect width="14" height="20" x="5" y="2" rx="2" ry="2" />
  <path d="M12 18h.01" /></symbol>
<symbol id="lucide-laptop" data-group="things" viewBox="0 0 24 24" class="lucide lucide-laptop" fill="none" stroke="currentColor" stroke-width="2" stroke-linecap="round" stroke-linejoin="round"><path d="M20 16V7a2 2 0 0 0-2-2H6a2 2 0 0 0-2 2v9m16 0H4m16 0 1.28 2.55a1 1 0 0 1-.9 1.45H3.62a1 1 0 0 1-.9-1.45L4 16" /></symbol>
<symbol id="lucide-umbrella" data-group="things" viewBox="0 0 24 24" class="lucide lucide-umbrella" fill="none" stroke="currentColor" stroke-width="2" stroke-linecap="round" stroke-linejoin="round"><path d="M22 12a10.06 10.06 1 0 0-20 0Z" />
  <path d="M12 12v8a2 2 0 0 0 4 0" />
  <path d="M12 2v1" /></symbol>
<symbol id="lucide-camera" data-group="things" viewBox="0 0 24 24" class="lucide lucide-camera" fill="none" stroke="currentColor" stroke-width="2" stroke-linecap="round" stroke-linejoin="round"><path d="M14.5 4h-5L7 7H4a2 2 0 0 0-2 2v9a2 2 0 0 0 2 2h16a2 2 0 0 0 2-2V9a2 2 0 0 0-2-2h-3l-2.5-3z" />
  <circle cx="12" cy="13" r="3" /></symbol>
<symbol id="lucide-book-open" data-group="things" viewBox="0 0 24 24" class="lucide lucide-book-open" fill="none" stroke="currentColor" stroke-width="2" stroke-linecap="round" stroke-linejoin="round"><path d="M12 7v14" />
  <path d="M3 18a1 1 0 0 1-1-1V4a1 1 0 0 1 1-1h5a4 4 0 0 1 4 4 4 4 0 0 1 4-4h5a1 1 0 0 1 1 1v13a1 1 0 0 1-1 1h-6a3 3 0 0 0-3 3 3 3 0 0 0-3-3z" /></symbol>
<symbol id="lucide-gift" data-group="things" viewBox="0 0 24 24" class="lucide lucide-gift" fill="none" stroke="currentColor" stroke-width="2" stroke-linecap="round" stroke-linejoin="round"><rect x="3" y="8" width="18" height="4" rx="1" />
  <path d="M12 8v13" />
  <path d="M19 12v7a2 2 0 0 1-2 2H7a2 2 0 0 1-2-2v-7" />
  <path d="M7.5 8a2.5 2.5 0 0 1 0-5A4.8 8 0 0 1 12 8a4.8 8 0 0 1 4.5-5 2.5 2.5 0 0 1 0 5" /></symbol>
<symbol id="lucide-guitar" data-group="things" viewBox="0 0 24 24" class="lucide lucide-guitar" fill="none" stroke="currentColor" stroke-width="2" stroke-linecap="round" stroke-linejoin="round"><path d="m11.9 12.1 4.514-4.514" />
  <path d="M20.1 2.3a1 1 0 0 0-1.4 0l-1.114 1.114A2 2 0 0 0 17 4.828v1.344a2 2 0 0 1-.586 1.414A2 2 0 0 1 17.828 7h1.344a2 2 0 0 0 1.414-.586L21.7 5.3a1 1 0 0 0 0-1.4z" />
  <path d="m6 16 2 2" />
  <path d="M8.2 9.9C8.7 8.8 9.8 8 11 8c2.8 0 5 2.2 5 5 0 1.2-.8 2.3-1.9 2.8l-.9.4A2 2 0 0 0 12 18a4 4 0 0 1-4 4c-3.3 0-6-2.7-6-6a4 4 0 0 1 4-4 2 2 0 0 0 1.8-1.2z" />
  <circle cx="11.5" cy="12.5" r=".5" fill="currentColor" /></symbol>
<symbol id="lucide-scissors" data-group="things" viewBox="0 0 24 24" class="lucide lucide-scissors" fill="none" stroke="currentColor" stroke-width="2" stroke-linecap="round" stroke-linejoin="round"><circle cx="6" cy="6" r="3" />
  <path d="M8.12 8.12 12 12" />
  <path d="M20 4 8.12 15.88" />
  <circle cx="6" cy="18" r="3" />
  <path d="M14.8 14.8 20 20" /></symbol>
<symbol id="lucide-wrench" data-group="things" viewBox="0 0 24 24" class="lucide lucide-wrench" fill="none" stroke="currentColor" stroke-width="2" stroke-linecap="round" stroke-linejoin="round"><path d="M14.7 6.3a1 1 0 0 0 0 1.4l1.6 1.6a1 1 0 0 0 1.4 0l3.77-3.77a6 6 0 0 1-7.94 7.94l-6.91 6.91a2.12 2.12 0 0 1-3-3l6.91-6.91a6 6 0 0 1 7.94-7.94l-3.76 3.76z" /></symbol>
<symbol id="lucide-hammer" data-group="things" viewBox="0 0 24 24" class="lucide lucide-hammer" fill="none" stroke="currentColor" stroke-width="2" stroke-linecap="round" stroke-linejoin="round"><path d="m15 12-8.373 8.373a1 1 0 1 1-3-3L12 9" />
  <path d="m18 15 4-4" />
  <path d="m21.5 11.5-1.914-1.914A2 2 0 0 1 19 8.172V7l-2.26-2.26a6 6 0 0 0-4.202-1.756L9 2.96l.92.82A6.18 6.18 0 0 1 12 8.4V10l2 2h1.172a2 2 0 0 1 1.414.586L18.5 14.5" /></symbol>
<symbol id="lucide-briefcase" data-group="things" viewBox="0 0 24 24" class="lucide lucide-briefcase" fill="none" stroke="currentColor" stroke-width="2" stroke-linecap="round" stroke-linejoin="round"><path d="M16 20V4a2 2 0 0 0-2-2h-4a2 2 0 0 0-2 2v16" />
  <rect width="20" height="14" x="2" y="6" rx="2" /></symbol>
<symbol id="lucide-footprints" data-group="things" viewBox="0 0 24 24" class="lucide lucide-footprints" fill="none" stroke="currentColor" stroke-width="2" stroke-linecap="round" stroke-linejoin="round"><path d="M4 16v-2.38C4 11.5 2.97 10.5 3 8c.03-2.72 1.49-6 4.5-6C9.37 2 10 3.8 10 5.5c0 3.11-2 5.66-2 8.68V16a2 2 0 1 1-4 0Z" />
  <path d="M20 20v-2.38c0-2.12 1.03-3.12 1-5.62-.03-2.72-1.49-6-4.5-6C14.63 6 14 7.8 14 9.5c0 3.11 2 5.66 2 8.68V20a2 2 0 1 0 4 0Z" />
  <path d="M16 17h4" />
  <path d="M4 13h4" /></symbol>
<symbol id="lucide-bell" data-group="things" viewBox="0 0 24 24" class="lucide lucide-bell" fill="none" stroke="currentColor" stroke-width="2" stroke-linecap="round" stroke-linejoin="round"><path d="M10.268 21a2 2 0 0 0 3.464 0" />
  <path d="M3.262 15.326A1 1 0 0 0 4 17h16a1 1 0 0 0 .74-1.673C19.41 13.956 18 12.499 18 8A6 6 0 0 0 6 8c0 4.499-1.411 5.956-2.738 7.326" /></symbol>
<symbol id="lucide-door-open" data-group="places" viewBox="0 0 24 24" class="lucide lucide-door-open" fill="none" stroke="currentColor" stroke-width="2" stroke-linecap="round" stroke-linejoin="round"><path d="M13 4h3a2 2 0 0 1 2 2v14" />
  <path d="M2 20h3" />
  <path d="M13 20h9" />
  <path d="M10 12v.01" />
  <path d="M13 4.562v16.157a1 1 0 0 1-1.242.97L5 20V5.562a2 2 0 0 1 1.515-1.94l4-1A2 2 0 0 1 13 4.561Z" /></symbol>
<symbol id="lucide-house" data-group="places" viewBox="0 0 24 24" class="lucide lucide-house" fill="none" stroke="currentColor" stroke-width="2" stroke-linecap="round" stroke-linejoin="round"><path d="M15 21v-8a1 1 0 0 0-1-1h-4a1 1 0 0 0-1 1v8" />
  <path d="M3 10a2 2 0 0 1 .709-1.528l7-5.999a2 2 0 0 1 2.582 0l7 5.999A2 2 0 0 1 21 10v9a2 2 0 0 1-2 2H5a2 2 0 0 1-2-2z" /></symbol>
<symbol id="lucide-tent" data-group="places" viewBox="0 0 24 24" class="lucide lucide-tent" fill="none" stroke="currentColor" stroke-width="2" stroke-linecap="round" stroke-linejoin="round"><path d="M3.5 21 14 3" />
  <path d="M20.5 21 10 3" />
  <path d="M15.5 21 12 15l-3.5 6" />
  <path d="M2 21h20" /></symbol>
<symbol id="lucide-map-pin" data-group="places" viewBox="0 0 24 24" class="lucide lucide-map-pin" fill="none" stroke="currentColor" stroke-width="2" stroke-linecap="round" stroke-linejoin="round"><path d="M20 10c0 4.993-5.539 10.193-7.399 11.799a1 1 0 0 1-1.202 0C9.539 20.193 4 14.993 4 10a8 8 0 0 1 16 0" />
  <circle cx="12" cy="10" r="3" /></symbol>
<symbol id="lucide-compass" data-group="places" viewBox="0 0 24 24" class="lucide lucide-compass" fill="none" stroke="currentColor" stroke-width="2" stroke-linecap="round" stroke-linejoin="round"><path d="m16.24 7.76-1.804 5.411a2 2 0 0 1-1.265 1.265L7.76 16.24l1.804-5.411a2 2 0 0 1 1.265-1.265z" />
  <circle cx="12" cy="12" r="10" /></symbol>
<symbol id="lucide-anchor" data-group="places" viewBox="0 0 24 24" class="lucide lucide-anchor" fill="none" stroke="currentColor" stroke-width="2" stroke-linecap="round" stroke-linejoin="round"><path d="M12 22V8" />
  <path d="M5 12H2a10 10 0 0 0 20 0h-3" />
  <circle cx="12" cy="5" r="3" /></symbol>
<symbol id="lucide-plane" data-group="places" viewBox="0 0 24 24" class="lucide lucide-plane" fill="none" stroke="currentColor" stroke-width="2" stroke-linecap="round" stroke-linejoin="round"><path d="M17.8 19.2 16 11l3.5-3.5C21 6 21.5 4 21 3c-1-.5-3 0-4.5 1.5L13 8 4.8 6.2c-.5-.1-.9.1-1.1.5l-.3.5c-.2.5-.1 1 .3 1.3L9 12l-2 3H4l-1 1 3 2 2 3 1-1v-3l3-2 3.5 5.3c.3.4.8.5 1.3.3l.5-.2c.4-.3.6-.7.5-1.2z" /></symbol>
<symbol id="lucide-train-front" data-group="places" viewBox="0 0 24 24" class="lucide lucide-train-front" fill="none" stroke="currentColor" stroke-width="2" stroke-linecap="round" stroke-linejoin="round"><path d="M8 3.1V7a4 4 0 0 0 8 0V3.1" />
  <path d="m9 15-1-1" />
  <path d="m15 15 1-1" />
  <path d="M9 19c-2.8 0-5-2.2-5-5v-4a8 8 0 0 1 16 0v4c0 2.8-2.2 5-5 5Z" />
  <path d="m8 19-2 3" />
  <path d="m16 19 2 3" /></symbol>
<symbol id="lucide-bus" data-group="places" viewBox="0 0 24 24" class="lucide lucide-bus" fill="none" stroke="currentColor" stroke-width="2" stroke-linecap="round" stroke-linejoin="round"><path d="M8 6v6" />
  <path d="M15 6v6" />
  <path d="M2 12h19.6" />
  <path d="M18 18h3s.5-1.7.8-2.8c.1-.4.2-.8.2-1.2 0-.4-.1-.8-.2-1.2l-1.4-5C20.1 6.8 19.1 6 18 6H4a2 2 0 0 0-2 2v10h3" />
  <circle cx="7" cy="18" r="2" />
  <path d="M9 18h5" />
  <circle cx="16" cy="18" r="2" /></symbol>
<symbol id="lucide-sailboat" data-group="places" viewBox="0 0 24 24" class="lucide lucide-sailboat" fill="none" stroke="currentColor" stroke-width="2" stroke-linecap="round" stroke-linejoin="round"><path d="M22 18H2a4 4 0 0 0 4 4h12a4 4 0 0 0 4-4Z" />
  <path d="M21 14 10 2 3 14h18Z" />
  <path d="M10 2v16" /></symbol>
</svg>
